<?xml version="1.0" encoding="UTF-8"?>
<svg id="Capa_1" xmlns="http://www.w3.org/2000/svg" version="1.1" viewBox="0 0 512 512">
  <!-- Generator: Adobe Illustrator 29.1.0, SVG Export Plug-In . SVG Version: 2.1.0 Build 142)  -->
  <defs>
    <style>
      .st0 {
        fill: #ce2424;
      }
    </style>
  </defs>
  <circle class="st0" cx="336.6" cy="288.9" r="20.1"/>
  <path class="st0" d="M347.1,228c0-5.8-4.7-10.5-10.5-10.5s-10.5,4.7-10.5,10.5,4.7,10.5,10.5,10.5,10.5-4.7,10.5-10.5Z"/>
  <path class="st0" d="M256,423.2c92.2,0,167.2-75,167.2-167.2s-75-167.2-167.2-167.2S88.8,163.8,88.8,256s75,167.2,167.2,167.2ZM295.7,228c0-22.5,18.3-40.9,40.9-40.9s40.9,18.3,40.9,40.9-2.7,16.7-7.3,23.3c10.4,9.2,16.9,22.7,16.9,37.6,0,27.8-22.6,50.4-50.4,50.4s-50.4-22.6-50.4-50.4,6.5-28.4,16.9-37.6c-4.6-6.6-7.3-14.7-7.3-23.3h0ZM205.3,182.3h56.4v152.3h-30.4v-121.9h-26.1v-30.4ZM146.1,247.7v-25.7h30.4v25.7h25.7v30.4h-25.7v25.7h-30.4v-25.7h-25.7v-30.4h25.7Z"/>
  <path class="st0" d="M437,75C388.7,26.6,324.4,0,256,0S123.3,26.6,75,75C26.6,123.3,0,187.6,0,256s26.6,132.7,75,181,112.6,75,181,75,132.7-26.6,181-75c48.4-48.4,75-112.6,75-181,0-68.4-26.6-132.7-75-181h0ZM256,58.5c108.9,0,197.5,88.6,197.5,197.5s-88.6,197.5-197.5,197.5S58.5,364.9,58.5,256,147.1,58.5,256,58.5h0Z"/>
</svg>